<svg width="1200" height="360" viewBox="0 0 1200 360" fill="none" xmlns="http://www.w3.org/2000/svg">
  <defs>
    <linearGradient id="bg" x1="0" y1="0" x2="1200" y2="360" gradientUnits="userSpaceOnUse">
      <stop stop-color="#080B16"/>
      <stop offset="0.55" stop-color="#101636"/>
      <stop offset="1" stop-color="#061F2D"/>
    </linearGradient>
    <radialGradient id="glowPurple" cx="0" cy="0" r="1" gradientUnits="userSpaceOnUse" gradientTransform="translate(320 150) rotate(23) scale(420 240)">
      <stop stop-color="#6C63FF" stop-opacity="0.65"/>
      <stop offset="1" stop-color="#6C63FF" stop-opacity="0"/>
    </radialGradient>
    <radialGradient id="glowCyan" cx="0" cy="0" r="1" gradientUnits="userSpaceOnUse" gradientTransform="translate(900 220) rotate(-18) scale(360 220)">
      <stop stop-color="#00C7B7" stop-opacity="0.45"/>
      <stop offset="1" stop-color="#00C7B7" stop-opacity="0"/>
    </radialGradient>
    <linearGradient id="stroke" x1="120" y1="280" x2="1080" y2="80" gradientUnits="userSpaceOnUse">
      <stop stop-color="#6C63FF"/>
      <stop offset="1" stop-color="#00C7B7"/>
    </linearGradient>
    <filter id="softGlow" x="-50%" y="-50%" width="200%" height="200%">
      <feGaussianBlur stdDeviation="8" result="blur"/>
      <feColorMatrix in="blur" type="matrix" values="0 0 0 0 0.423 0 0 0 0 0.388 0 0 0 0 1 0 0 0 0.8 0"/>
      <feBlend in="SourceGraphic"/>
    </filter>
  </defs>

  <rect width="1200" height="360" rx="28" fill="url(#bg)"/>
  <rect width="1200" height="360" rx="28" fill="url(#glowPurple)"/>
  <rect width="1200" height="360" rx="28" fill="url(#glowCyan)"/>

  <g opacity="0.22">
    <path d="M90 78H1110" stroke="white" stroke-opacity="0.16"/>
    <path d="M90 138H1110" stroke="white" stroke-opacity="0.10"/>
    <path d="M90 198H1110" stroke="white" stroke-opacity="0.10"/>
    <path d="M90 258H1110" stroke="white" stroke-opacity="0.16"/>
    <path d="M180 44V316" stroke="white" stroke-opacity="0.10"/>
    <path d="M340 44V316" stroke="white" stroke-opacity="0.08"/>
    <path d="M500 44V316" stroke="white" stroke-opacity="0.08"/>
    <path d="M660 44V316" stroke="white" stroke-opacity="0.08"/>
    <path d="M820 44V316" stroke="white" stroke-opacity="0.08"/>
    <path d="M980 44V316" stroke="white" stroke-opacity="0.10"/>
  </g>

  <g filter="url(#softGlow)" opacity="0.95">
    <path d="M116 246C202 194 260 260 340 210C420 160 478 166 560 196C642 226 702 222 770 172C838 122 928 130 1084 88" stroke="url(#stroke)" stroke-width="3" stroke-linecap="round"/>
    <path d="M122 118C210 160 278 100 350 138C422 176 476 92 558 126C640 160 684 108 748 126C812 144 878 224 1080 190" stroke="url(#stroke)" stroke-width="2" stroke-opacity="0.7" stroke-linecap="round"/>
  </g>

  <g>
    <circle cx="116" cy="246" r="6" fill="#6C63FF"/>
    <circle cx="340" cy="210" r="6" fill="#00C7B7"/>
    <circle cx="560" cy="196" r="6" fill="#6C63FF"/>
    <circle cx="770" cy="172" r="6" fill="#00C7B7"/>
    <circle cx="1084" cy="88" r="6" fill="#6C63FF"/>
    <circle cx="122" cy="118" r="5" fill="#00C7B7"/>
    <circle cx="350" cy="138" r="5" fill="#6C63FF"/>
    <circle cx="558" cy="126" r="5" fill="#00C7B7"/>
    <circle cx="748" cy="126" r="5" fill="#6C63FF"/>
    <circle cx="1080" cy="190" r="5" fill="#00C7B7"/>
  </g>

  <g opacity="0.92">
    <rect x="86" y="58" width="186" height="48" rx="14" fill="#111827" fill-opacity="0.72" stroke="#6C63FF" stroke-opacity="0.45"/>
    <text x="112" y="88" fill="#E5E7EB" font-family="Inter, Segoe UI, Arial, sans-serif" font-size="16" font-weight="700">RAG Pipelines</text>
    <rect x="912" y="224" width="198" height="48" rx="14" fill="#111827" fill-opacity="0.72" stroke="#00C7B7" stroke-opacity="0.45"/>
    <text x="938" y="254" fill="#E5E7EB" font-family="Inter, Segoe UI, Arial, sans-serif" font-size="16" font-weight="700">AI Automation</text>
    <rect x="894" y="72" width="190" height="48" rx="14" fill="#111827" fill-opacity="0.72" stroke="#6C63FF" stroke-opacity="0.45"/>
    <text x="920" y="102" fill="#E5E7EB" font-family="Inter, Segoe UI, Arial, sans-serif" font-size="16" font-weight="700">FastAPI + React</text>
  </g>

  <g>
    <text x="600" y="158" text-anchor="middle" fill="white" font-family="Inter, Segoe UI, Arial, sans-serif" font-size="54" font-weight="800" letter-spacing="-1.2">Dmitri Derevjanko</text>
    <text x="600" y="202" text-anchor="middle" fill="#C7D2FE" font-family="Inter, Segoe UI, Arial, sans-serif" font-size="24" font-weight="700">AI Integration Specialist</text>
    <text x="600" y="238" text-anchor="middle" fill="#A7F3D0" font-family="Inter, Segoe UI, Arial, sans-serif" font-size="18" font-weight="600">RAG " OCR " Agents " Automation " Production AI Systems</text>
  </g>
</svg>
