<svg width="1080" height="360" viewBox="0 0 1080 360" fill="none" xmlns="http://www.w3.org/2000/svg">
  <defs>
    <linearGradient id="bg" x1="0" y1="0" x2="1080" y2="360" gradientUnits="userSpaceOnUse">
      <stop stop-color="#050816"/>
      <stop offset="0.52" stop-color="#101636"/>
      <stop offset="1" stop-color="#042F3A"/>
    </linearGradient>
    <linearGradient id="accent" x1="70" y1="302" x2="1010" y2="58" gradientUnits="userSpaceOnUse">
      <stop stop-color="#6C63FF"/>
      <stop offset="1" stop-color="#00E5C3"/>
    </linearGradient>
    <linearGradient id="card" x1="70" y1="120" x2="1010" y2="292" gradientUnits="userSpaceOnUse">
      <stop stop-color="#111827" stop-opacity="0.92"/>
      <stop offset="1" stop-color="#0B1220" stop-opacity="0.78"/>
    </linearGradient>
    <filter id="shadow" x="-12%" y="-24%" width="124%" height="148%">
      <feDropShadow dx="0" dy="18" stdDeviation="22" flood-color="#000000" flood-opacity="0.32"/>
    </filter>
  </defs>
  <rect width="1080" height="360" rx="30" fill="url(#bg)"/>
  <g opacity="0.1">
    <path d="M0 72H1080M0 144H1080M0 216H1080M0 288H1080" stroke="#E5E7EB"/>
    <path d="M135 0V360M270 0V360M405 0V360M540 0V360M675 0V360M810 0V360M945 0V360" stroke="#E5E7EB"/>
  </g>
  <text x="70" y="72" fill="#FFFFFF" font-family="Inter, Segoe UI, Arial, sans-serif" font-size="38" font-weight="850" letter-spacing="-0.8">GitHub Dashboard</text>
  <text x="70" y="104" fill="#A7F3D0" font-family="Inter, Segoe UI, Arial, sans-serif" font-size="16" font-weight="700">Public proof of shipped demos, production systems, and active engineering work</text>
  <path d="M70 126H1010" stroke="url(#accent)" stroke-width="2" stroke-linecap="round" stroke-opacity="0.78"/>
  <g filter="url(#shadow)" font-family="Inter, Segoe UI, Arial, sans-serif">
    <rect x="70" y="158" width="296" height="132" rx="24" fill="url(#card)" stroke="#6C63FF" stroke-opacity="0.45"/>
    <text x="96" y="202" fill="#C7D2FE" font-size="36" font-weight="850">8</text>
    <text x="96" y="232" fill="#FFFFFF" font-size="17" font-weight="850">Live Product Demos</text>
    <text x="96" y="258" fill="#CBD5E1" font-size="13" font-weight="650">RAG, OSINT, finance, risk, OCR,</text>
    <text x="96" y="276" fill="#CBD5E1" font-size="13" font-weight="650">medical AI, vision, and automation.</text>
    <rect x="392" y="158" width="296" height="132" rx="24" fill="url(#card)" stroke="#00C7B7" stroke-opacity="0.45"/>
    <text x="418" y="202" fill="#CCFBF1" font-size="36" font-weight="850">100+</text>
    <text x="418" y="232" fill="#FFFFFF" font-size="17" font-weight="850">Delivered Solutions</text>
    <text x="418" y="258" fill="#CBD5E1" font-size="13" font-weight="650">Automation, AI workflows, APIs,</text>
    <text x="418" y="276" fill="#CBD5E1" font-size="13" font-weight="650">dashboards, and data pipelines.</text>
    <rect x="714" y="158" width="296" height="132" rx="24" fill="url(#card)" stroke="#6C63FF" stroke-opacity="0.45"/>
    <text x="740" y="202" fill="#C7D2FE" font-size="36" font-weight="850">End-to-End</text>
    <text x="740" y="232" fill="#FFFFFF" font-size="17" font-weight="850">Build Ownership</text>
    <text x="740" y="258" fill="#CBD5E1" font-size="13" font-weight="650">From ingestion and backend to UI,</text>
    <text x="740" y="276" fill="#CBD5E1" font-size="13" font-weight="650">deployment, monitoring, and iteration.</text>
  </g>
</svg>
