<svg width="262" height="48" viewBox="0 0 262 48" fill="none" xmlns="http://www.w3.org/2000/svg">
  <defs>
    <linearGradient id="border" x1="0" y1="48" x2="262" y2="0" gradientUnits="userSpaceOnUse">
      <stop stop-color="#6C63FF"/>
      <stop offset="1" stop-color="#64748B"/>
    </linearGradient>
    <linearGradient id="fill" x1="0" y1="0" x2="262" y2="48" gradientUnits="userSpaceOnUse">
      <stop stop-color="#111827"/>
      <stop offset="1" stop-color="#0B1220"/>
    </linearGradient>
  </defs>
  <rect x="1" y="1" width="260" height="46" rx="15" fill="url(#fill)" stroke="url(#border)" stroke-opacity="0.75" stroke-width="2"/>
  <circle cx="31" cy="24" r="12" fill="#FFFFFF" fill-opacity="0.08" stroke="#CBD5E1" stroke-opacity="0.45"/>
  <path d="M31 15.5c-5 0-9 4-9 9 0 4 2.6 7.4 6.2 8.6.45.08.62-.2.62-.44v-1.7c-2.52.55-3.05-1.08-3.05-1.08-.42-1.06-1.02-1.34-1.02-1.34-.84-.57.06-.56.06-.56.92.06 1.4.95 1.4.95.82 1.4 2.15 1 2.68.76.08-.6.32-1 .58-1.23-2.02-.23-4.14-1-4.14-4.48 0-.98.35-1.78.94-2.42-.1-.23-.4-1.15.08-2.38 0 0 .76-.24 2.48.92.72-.2 1.5-.3 2.27-.3.76 0 1.54.1 2.26.3 1.72-1.16 2.48-.92 2.48-.92.48 1.23.18 2.15.08 2.38.58.64.94 1.44.94 2.42 0 3.48-2.12 4.24-4.14 4.47.33.28.62.84.62 1.7v2.52c0 .24.16.52.62.44A9.02 9.02 0 0 0 40 24.5c0-5-4-9-9-9Z" fill="#F8FAFC"/>
  <text x="56" y="21" fill="#94A3B8" font-family="Inter, Segoe UI, Arial, sans-serif" font-size="11" font-weight="800" letter-spacing="1.7">GITHUB</text>
  <text x="56" y="35" fill="#F8FAFC" font-family="Inter, Segoe UI, Arial, sans-serif" font-size="15" font-weight="850" letter-spacing="0.5">DmitriDerevjanko</text>
</svg>
