<svg width="1080" height="620" viewBox="0 0 1080 620" fill="none" xmlns="http://www.w3.org/2000/svg">
  <defs>
    <linearGradient id="bg" x1="0" y1="0" x2="1080" y2="620" gradientUnits="userSpaceOnUse">
      <stop stop-color="#050816"/>
      <stop offset="0.5" stop-color="#101636"/>
      <stop offset="1" stop-color="#042F3A"/>
    </linearGradient>
    <linearGradient id="accent" x1="84" y1="550" x2="1000" y2="70" gradientUnits="userSpaceOnUse">
      <stop stop-color="#7C3AED"/>
      <stop offset="0.5" stop-color="#6C63FF"/>
      <stop offset="1" stop-color="#00E5C3"/>
    </linearGradient>
    <linearGradient id="card" x1="70" y1="110" x2="1010" y2="560" gradientUnits="userSpaceOnUse">
      <stop stop-color="#111827" stop-opacity="0.92"/>
      <stop offset="1" stop-color="#0B1220" stop-opacity="0.76"/>
    </linearGradient>
    <radialGradient id="glowOne" cx="0" cy="0" r="1" gradientUnits="userSpaceOnUse" gradientTransform="translate(230 150) rotate(25) scale(360 230)">
      <stop stop-color="#6C63FF" stop-opacity="0.55"/>
      <stop offset="1" stop-color="#6C63FF" stop-opacity="0"/>
    </radialGradient>
    <radialGradient id="glowTwo" cx="0" cy="0" r="1" gradientUnits="userSpaceOnUse" gradientTransform="translate(850 430) rotate(-20) scale(360 230)">
      <stop stop-color="#00C7B7" stop-opacity="0.42"/>
      <stop offset="1" stop-color="#00C7B7" stop-opacity="0"/>
    </radialGradient>
    <filter id="shadow" x="-15%" y="-20%" width="130%" height="140%">
      <feDropShadow dx="0" dy="22" stdDeviation="26" flood-color="#000000" flood-opacity="0.34"/>
    </filter>
  </defs>

  <rect width="1080" height="620" rx="30" fill="url(#bg)"/>
  <rect width="1080" height="620" rx="30" fill="url(#glowOne)"/>
  <rect width="1080" height="620" rx="30" fill="url(#glowTwo)"/>

  <g opacity="0.12">
    <path d="M0 96H1080M0 192H1080M0 288H1080M0 384H1080M0 480H1080" stroke="#E5E7EB"/>
    <path d="M120 0V620M240 0V620M360 0V620M480 0V620M600 0V620M720 0V620M840 0V620M960 0V620" stroke="#E5E7EB"/>
  </g>

  <g>
    <text x="70" y="76" fill="#FFFFFF" font-family="Inter, Segoe UI, Arial, sans-serif" font-size="38" font-weight="850" letter-spacing="-0.8">Tech Arsenal</text>
    <text x="70" y="108" fill="#A7F3D0" font-family="Inter, Segoe UI, Arial, sans-serif" font-size="16" font-weight="700">Tools I use to build production systems, automation, dashboards, APIs, and AI workflows</text>
    <path d="M70 132H1010" stroke="url(#accent)" stroke-width="2" stroke-linecap="round" stroke-opacity="0.8"/>
  </g>

  <g filter="url(#shadow)">
    <rect x="70" y="160" width="455" height="160" rx="24" fill="url(#card)" stroke="#6C63FF" stroke-opacity="0.45"/>
    <text x="96" y="205" fill="#C7D2FE" font-family="Inter, Segoe UI, Arial, sans-serif" font-size="20" font-weight="850">AI, ML &amp; Data</text>
    <circle cx="466" cy="194" r="20" fill="#6C63FF" fill-opacity="0.16" stroke="#6C63FF" stroke-opacity="0.6"/>
    <path d="M456 194h20M466 184v20M459 187c6 6 8 14 4 20M473 187c-6 6-8 14-4 20" stroke="#EDE9FE" stroke-width="1.45" stroke-linecap="round"/>

    <g font-family="Inter, Segoe UI, Arial, sans-serif" font-size="13" font-weight="800">
      <rect x="96" y="226" width="88" height="30" rx="15" fill="#6C63FF" fill-opacity="0.16" stroke="#6C63FF" stroke-opacity="0.55"/>
      <text x="140" y="246" text-anchor="middle" fill="#F8FAFC">OpenAI</text>
      <rect x="194" y="226" width="98" height="30" rx="15" fill="#0F172A" stroke="#334155"/>
      <text x="243" y="246" text-anchor="middle" fill="#F8FAFC">Anthropic</text>
      <rect x="302" y="226" width="108" height="30" rx="15" fill="#00C7B7" fill-opacity="0.14" stroke="#00C7B7" stroke-opacity="0.5"/>
      <text x="356" y="246" text-anchor="middle" fill="#F8FAFC">LangChain</text>
      <rect x="420" y="226" width="70" height="30" rx="15" fill="#6C63FF" fill-opacity="0.16" stroke="#6C63FF" stroke-opacity="0.55"/>
      <text x="455" y="246" text-anchor="middle" fill="#F8FAFC">RAG</text>

      <rect x="96" y="266" width="88" height="30" rx="15" fill="#0F172A" stroke="#334155"/>
      <text x="140" y="286" text-anchor="middle" fill="#F8FAFC">PyTorch</text>
      <rect x="194" y="266" width="98" height="30" rx="15" fill="#0F172A" stroke="#334155"/>
      <text x="243" y="286" text-anchor="middle" fill="#F8FAFC">Pandas</text>
      <rect x="302" y="266" width="78" height="30" rx="15" fill="#0F172A" stroke="#334155"/>
      <text x="341" y="286" text-anchor="middle" fill="#F8FAFC">OCR</text>
      <rect x="390" y="266" width="100" height="30" rx="15" fill="#00C7B7" fill-opacity="0.14" stroke="#00C7B7" stroke-opacity="0.5"/>
      <text x="440" y="286" text-anchor="middle" fill="#F8FAFC">Vector DB</text>
    </g>
  </g>

  <g filter="url(#shadow)">
    <rect x="555" y="160" width="455" height="160" rx="24" fill="url(#card)" stroke="#00C7B7" stroke-opacity="0.45"/>
    <text x="581" y="205" fill="#CCFBF1" font-family="Inter, Segoe UI, Arial, sans-serif" font-size="20" font-weight="850">Backend &amp; APIs</text>
    <circle cx="951" cy="194" r="20" fill="#00C7B7" fill-opacity="0.14" stroke="#00C7B7" stroke-opacity="0.6"/>
    <path d="M942 198c5.5-7 12.5-7 18 0M942 190c5.5 7 12.5 7 18 0M951 183v22" stroke="#CCFBF1" stroke-width="1.55" stroke-linecap="round"/>

    <g font-family="Inter, Segoe UI, Arial, sans-serif" font-size="13" font-weight="800">
      <rect x="581" y="226" width="86" height="30" rx="15" fill="#00C7B7" fill-opacity="0.14" stroke="#00C7B7" stroke-opacity="0.5"/>
      <text x="624" y="246" text-anchor="middle" fill="#F8FAFC">Python</text>
      <rect x="677" y="226" width="88" height="30" rx="15" fill="#00C7B7" fill-opacity="0.14" stroke="#00C7B7" stroke-opacity="0.5"/>
      <text x="721" y="246" text-anchor="middle" fill="#F8FAFC">FastAPI</text>
      <rect x="775" y="226" width="76" height="30" rx="15" fill="#0F172A" stroke="#334155"/>
      <text x="813" y="246" text-anchor="middle" fill="#F8FAFC">Flask</text>
      <rect x="861" y="226" width="92" height="30" rx="15" fill="#6C63FF" fill-opacity="0.16" stroke="#6C63FF" stroke-opacity="0.55"/>
      <text x="907" y="246" text-anchor="middle" fill="#F8FAFC">Node.js</text>

      <rect x="581" y="266" width="86" height="30" rx="15" fill="#0F172A" stroke="#334155"/>
      <text x="624" y="286" text-anchor="middle" fill="#F8FAFC">REST API</text>
      <rect x="677" y="266" width="112" height="30" rx="15" fill="#0F172A" stroke="#334155"/>
      <text x="733" y="286" text-anchor="middle" fill="#F8FAFC">WebSockets</text>
      <rect x="799" y="266" width="84" height="30" rx="15" fill="#00C7B7" fill-opacity="0.14" stroke="#00C7B7" stroke-opacity="0.5"/>
      <text x="841" y="286" text-anchor="middle" fill="#F8FAFC">Uvicorn</text>
      <rect x="893" y="266" width="88" height="30" rx="15" fill="#6C63FF" fill-opacity="0.16" stroke="#6C63FF" stroke-opacity="0.55"/>
      <text x="937" y="286" text-anchor="middle" fill="#F8FAFC">Pydantic</text>
    </g>
  </g>

  <g filter="url(#shadow)">
    <rect x="70" y="350" width="455" height="160" rx="24" fill="url(#card)" stroke="#6C63FF" stroke-opacity="0.45"/>
    <text x="96" y="395" fill="#C7D2FE" font-family="Inter, Segoe UI, Arial, sans-serif" font-size="20" font-weight="850">Frontend &amp; Product UI</text>
    <circle cx="466" cy="384" r="20" fill="#6C63FF" fill-opacity="0.16" stroke="#6C63FF" stroke-opacity="0.6"/>
    <path d="M456 384h20M466 374v20M459 377l14 14M473 377l-14 14" stroke="#EDE9FE" stroke-width="1.45" stroke-linecap="round"/>

    <g font-family="Inter, Segoe UI, Arial, sans-serif" font-size="13" font-weight="800">
      <rect x="96" y="416" width="82" height="30" rx="15" fill="#00C7B7" fill-opacity="0.14" stroke="#00C7B7" stroke-opacity="0.5"/>
      <text x="137" y="436" text-anchor="middle" fill="#F8FAFC">React</text>
      <rect x="188" y="416" width="86" height="30" rx="15" fill="#0F172A" stroke="#334155"/>
      <text x="231" y="436" text-anchor="middle" fill="#F8FAFC">Next.js</text>
      <rect x="284" y="416" width="112" height="30" rx="15" fill="#6C63FF" fill-opacity="0.16" stroke="#6C63FF" stroke-opacity="0.55"/>
      <text x="340" y="436" text-anchor="middle" fill="#F8FAFC">TypeScript</text>
      <rect x="406" y="416" width="82" height="30" rx="15" fill="#0F172A" stroke="#334155"/>
      <text x="447" y="436" text-anchor="middle" fill="#F8FAFC">HTML</text>

      <rect x="96" y="456" width="82" height="30" rx="15" fill="#0F172A" stroke="#334155"/>
      <text x="137" y="476" text-anchor="middle" fill="#F8FAFC">CSS</text>
      <rect x="188" y="456" width="86" height="30" rx="15" fill="#0F172A" stroke="#334155"/>
      <text x="231" y="476" text-anchor="middle" fill="#F8FAFC">Sass</text>
      <rect x="284" y="456" width="112" height="30" rx="15" fill="#00C7B7" fill-opacity="0.14" stroke="#00C7B7" stroke-opacity="0.5"/>
      <text x="340" y="476" text-anchor="middle" fill="#F8FAFC">Dashboards</text>
      <rect x="406" y="456" width="82" height="30" rx="15" fill="#6C63FF" fill-opacity="0.16" stroke="#6C63FF" stroke-opacity="0.55"/>
      <text x="447" y="476" text-anchor="middle" fill="#F8FAFC">UI</text>
    </g>
  </g>

  <g filter="url(#shadow)">
    <rect x="555" y="350" width="455" height="160" rx="24" fill="url(#card)" stroke="#00C7B7" stroke-opacity="0.45"/>
    <text x="581" y="395" fill="#CCFBF1" font-family="Inter, Segoe UI, Arial, sans-serif" font-size="20" font-weight="850">Data, Automation &amp; DevOps</text>
    <circle cx="951" cy="384" r="20" fill="#00C7B7" fill-opacity="0.14" stroke="#00C7B7" stroke-opacity="0.6"/>
    <path d="M940 387h22M945 380h12M948 373h6M947 394h8" stroke="#CCFBF1" stroke-width="1.55" stroke-linecap="round"/>

    <g font-family="Inter, Segoe UI, Arial, sans-serif" font-size="13" font-weight="800">
      <rect x="581" y="416" width="112" height="30" rx="15" fill="#00C7B7" fill-opacity="0.14" stroke="#00C7B7" stroke-opacity="0.5"/>
      <text x="637" y="436" text-anchor="middle" fill="#F8FAFC">PostgreSQL</text>
      <rect x="703" y="416" width="82" height="30" rx="15" fill="#0F172A" stroke="#334155"/>
      <text x="744" y="436" text-anchor="middle" fill="#F8FAFC">SQLite</text>
      <rect x="795" y="416" width="96" height="30" rx="15" fill="#6C63FF" fill-opacity="0.16" stroke="#6C63FF" stroke-opacity="0.55"/>
      <text x="843" y="436" text-anchor="middle" fill="#F8FAFC">Vector DB</text>
      <rect x="901" y="416" width="80" height="30" rx="15" fill="#0F172A" stroke="#334155"/>
      <text x="941" y="436" text-anchor="middle" fill="#F8FAFC">Notion</text>

      <rect x="581" y="456" width="86" height="30" rx="15" fill="#00C7B7" fill-opacity="0.14" stroke="#00C7B7" stroke-opacity="0.5"/>
      <text x="624" y="476" text-anchor="middle" fill="#F8FAFC">Docker</text>
      <rect x="677" y="456" width="116" height="30" rx="15" fill="#6C63FF" fill-opacity="0.16" stroke="#6C63FF" stroke-opacity="0.55"/>
      <text x="735" y="476" text-anchor="middle" fill="#F8FAFC">CI/CD</text>
      <rect x="803" y="456" width="82" height="30" rx="15" fill="#0F172A" stroke="#334155"/>
      <text x="844" y="476" text-anchor="middle" fill="#F8FAFC">Linux</text>
      <rect x="895" y="456" width="86" height="30" rx="15" fill="#00C7B7" fill-opacity="0.14" stroke="#00C7B7" stroke-opacity="0.5"/>
      <text x="938" y="476" text-anchor="middle" fill="#F8FAFC">nginx</text>
    </g>
  </g>

  <g>
    <path d="M70 550H1010" stroke="url(#accent)" stroke-width="2" stroke-linecap="round" stroke-opacity="0.7"/>
    <text x="540" y="584" text-anchor="middle" fill="#CBD5E1" font-family="Inter, Segoe UI, Arial, sans-serif" font-size="15" font-weight="700">Production stack for automation, dashboards, APIs, data workflows, AI features, and deployment</text>
  </g>
</svg>
